<svg xmlns="http://www.w3.org/2000/svg" viewBox="0 0 900 600">
  <defs>
    <radialGradient id="r1" cx="30%" cy="25%" r="70%">
      <stop offset="0" stop-color="#7c5cff" stop-opacity=".55"/>
      <stop offset=".55" stop-color="#22d3ee" stop-opacity=".22"/>
      <stop offset="1" stop-color="#34d399" stop-opacity=".06"/>
    </radialGradient>
    <linearGradient id="l1" x1="0" x2="1" y1="0" y2="1">
      <stop offset="0" stop-color="#1b2555" stop-opacity=".95"/>
      <stop offset="1" stop-color="#0b1020" stop-opacity=".95"/>
    </linearGradient>
  </defs>
  <rect width="900" height="600" rx="34" fill="url(#l1)"/>
  <circle cx="270" cy="170" r="240" fill="url(#r1)"/>
  <g opacity=".9">
    <path d="M145 395c95-150 180-150 275 0" fill="none" stroke="#7c5cff" stroke-width="10" stroke-linecap="round" opacity=".6"/>
    <path d="M210 395c70-110 135-110 205 0" fill="none" stroke="#22d3ee" stroke-width="10" stroke-linecap="round" opacity=".55"/>
    <path d="M260 395c55-85 105-85 160 0" fill="none" stroke="#34d399" stroke-width="10" stroke-linecap="round" opacity=".45"/>
  </g>
  <g>
    <rect x="520" y="120" width="320" height="360" rx="22" fill="#0f1733" opacity=".75" stroke="#1f2a55"/>
    <rect x="548" y="156" width="264" height="18" rx="9" fill="#ffffff" opacity=".08"/>
    <rect x="548" y="196" width="210" height="14" rx="7" fill="#ffffff" opacity=".07"/>
    <rect x="548" y="234" width="248" height="90" rx="18" fill="#ffffff" opacity=".06"/>
    <rect x="548" y="342" width="248" height="60" rx="18" fill="#ffffff" opacity=".06"/>
    <rect x="548" y="416" width="160" height="18" rx="9" fill="#7c5cff" opacity=".35"/>
  </g>
</svg>
